<?xml version="1.0" encoding="utf-8"?>
<!-- Generator: Adobe Illustrator 24.1.2, SVG Export Plug-In . SVG Version: 6.00 Build 0)  -->
<svg version="1.1" id="圖層_1" xmlns="http://www.w3.org/2000/svg" xmlns:xlink="http://www.w3.org/1999/xlink" x="0px" y="0px"
	 viewBox="0 0 512 512" style="enable-background:new 0 0 512 512;" xml:space="preserve">
<style type="text/css">
	.st0{fill:#C9C9C9;}
	.st1{fill:#FFFFFF;}
</style>
<rect y="0" class="st0" width="512" height="512"/>
<g>
	<path class="st1" d="M340.1,213.9l66.3,79.1c3.9,4.8,10.6,6.6,16.5,4.6c6-2.1,10.1-7.9,10.1-14.2V159.9c0-31-25.2-56.2-56.2-56.2
		H135.2c-31,0-56.2,25.2-56.2,56.2v192.2c0,31,25.2,56.2,56.2,56.2h130.1l0,0l0,0h111.5c31,0,56.2-25.2,56.2-56.2
		c0-8.3-6.7-15-15-15s-15,6.7-15,15c0,14.4-11.7,26.2-26.2,26.2H272.6L242,338.6L340.1,213.9z M135.2,378.3
		c-14.4,0-26.2-11.8-26.2-26.2V159.9c0-14.4,11.7-26.2,26.2-26.2h241.6c14.4,0,26.2,11.7,26.2,26.2v82.3l-51.8-61.8
		c-2.9-3.5-7.2-5.4-11.7-5.4c-4.5,0.1-8.8,2.2-11.6,5.7L223.2,314.1l-34.9-45.3c-2.8-3.7-7.2-5.8-11.9-5.8l0,0
		c-4.7,0-9,2.2-11.9,5.9l-30.2,39.3c-5.1,6.6-3.8,16,2.7,21c6.6,5.1,16,3.8,21-2.7l18.3-23.8l58.4,75.7h-99.5L135.2,378.3
		L135.2,378.3z"/>
	<path class="st1" d="M176.4,238.1c23.4,0,42.5-19,42.5-42.5c0-23.4-19-42.5-42.5-42.5c-23.4,0-42.5,19-42.5,42.5
		C133.9,219,153,238.1,176.4,238.1z M176.4,183.1c6.9,0,12.5,5.6,12.5,12.5s-5.6,12.5-12.5,12.5s-12.5-5.6-12.5-12.5
		S169.5,183.1,176.4,183.1z"/>
</g>
</svg>
